<?xml version="1.0" encoding="UTF-8"?>
<svg width="37px" height="33px" viewBox="0 0 37 33" version="1.1" xmlns="http://www.w3.org/2000/svg" xmlns:xlink="http://www.w3.org/1999/xlink">
    <!-- Generator: Sketch 51 (57462) - http://www.bohemiancoding.com/sketch -->
    <title>Shape</title>
    <desc>Created with Sketch.</desc>
    <defs></defs>
    <g id="Page-1" stroke="none" stroke-width="1" fill="none" fill-rule="evenodd">
        <g id="Desktop-HD-Copy" transform="translate(-290.000000, -848.000000)" fill="#5C5DA3" fill-rule="nonzero">
            <g id="Grid-container" transform="translate(143.000000, 283.000000)">
                <g id="Stacked-Group">
                    <g id="Grid-1">
                        <g>
                            <g id="Group-4">
                                <g id="Group" transform="translate(1.473354, 0.000000)">
                                    <g id="Content-area" transform="translate(18.526646, 370.000000)">
                                        <g id="User-feed" transform="translate(0.000000, 195.000000)">
                                            <g id="comment-regular" transform="translate(127.000000, 0.000000)">
                                                <path d="M18.5023978,0 C8.28536277,0 0.00479551971,6.766375 0.00479551971,15.1171429 C0.00479551971,18.5766429 1.44269507,21.7454286 3.82715161,24.2964464 C2.75053335,27.1599821 0.510589331,29.5874464 0.474461202,29.6165179 C-0.00243010616,30.1252679 -0.132491372,30.8665893 0.142082411,31.5061607 C0.416656195,32.1457321 1.04528565,32.56 1.73894573,32.56 C6.18270564,32.56 9.68713419,30.6921607 11.7897913,29.1949821 C13.8779972,29.8563571 16.1323925,30.2342857 18.5023978,30.2342857 C28.7194327,30.2342857 37,23.4679107 37,15.1171429 C37,6.766375 28.7194327,0 18.5023978,0 Z M18.5023978,26.7457143 C16.5731557,26.7457143 14.6655904,26.4477321 12.8375071,25.8663036 L11.19729,25.3430179 L9.78829295,26.3459821 C8.75502845,27.0800357 7.33880578,27.9013036 5.63355808,28.4536607 C6.16102877,27.57425 6.6740482,26.5858214 7.07145763,25.5319821 L7.83737397,23.4897143 L6.34889504,21.9053214 C5.04105675,20.502625 3.47309594,18.1841786 3.47309594,15.1171429 C3.47309594,8.70689286 10.2146049,3.48857143 18.5023978,3.48857143 C26.7901906,3.48857143 33.5316996,8.70689286 33.5316996,15.1171429 C33.5316996,21.5273929 26.7901906,26.7457143 18.5023978,26.7457143 Z" id="Shape"></path>
                                            </g>
                                        </g>
                                    </g>
                                </g>
                            </g>
                        </g>
                    </g>
                </g>
            </g>
        </g>
    </g>
</svg>