<?xml version="1.0" encoding="UTF-8"?>
<svg width="35px" height="27px" viewBox="0 0 35 27" version="1.1" xmlns="http://www.w3.org/2000/svg" xmlns:xlink="http://www.w3.org/1999/xlink">
    <!-- Generator: Sketch 50.2 (55047) - http://www.bohemiancoding.com/sketch -->
    <title>email</title>
    <desc>Created with Sketch.</desc>
    <defs></defs>
    <g id="Page-1" stroke="none" stroke-width="1" fill="none" fill-rule="evenodd">
        <g id="Desktop-HD" transform="translate(-270.000000, -4999.000000)" fill="#989898" fill-rule="nonzero">
            <g id="Group-4" transform="translate(-1.000000, 4894.000000)">
                <g id="Subscription-section" transform="translate(234.000000, 81.000000)">
                    <g id="Subscribe-button">
                        <g id="Form-input" transform="translate(0.000000, 0.885714)">
                            <g id="email" transform="translate(37.000000, 24.000000)">
                                <path d="M31.71875,0 L3.28125,0 C1.46904297,0 0,1.46044286 0,3.26204082 L0,22.8342857 C0,24.6358837 1.46904297,26.0963265 3.28125,26.0963265 L31.71875,26.0963265 C33.530957,26.0963265 35,24.6358837 35,22.8342857 L35,3.26204082 C35,1.46044286 33.530957,0 31.71875,0 Z M31.71875,3.26204082 L31.71875,6.03511531 C30.1859961,7.27598204 27.7424219,9.20547918 22.5184668,13.2720888 C21.3672266,14.1723441 19.0867578,16.3351451 17.5,16.3099322 C15.9135156,16.3354169 13.6322949,14.1720043 12.4815332,13.2720888 C7.25839844,9.20609082 4.81420898,7.27618592 3.28125,6.03511531 L3.28125,3.26204082 L31.71875,3.26204082 Z M3.28125,22.8342857 L3.28125,10.2209253 C4.84763672,11.4612484 7.06897461,13.201751 10.4547461,15.83748 C11.948877,17.0067178 14.5654687,19.5878755 17.5,19.5721769 C20.4201074,19.5878755 23.0035449,17.0441633 24.5446387,15.8380237 C27.9303418,13.2023627 30.1522949,11.4613843 31.71875,10.2209253 L31.71875,22.8342857 L3.28125,22.8342857 Z" id="Shape"></path>
                            </g>
                        </g>
                    </g>
                </g>
            </g>
        </g>
    </g>
</svg>