<?xml version="1.0" encoding="UTF-8"?>
<svg width="23px" height="20px" viewBox="0 0 23 20" version="1.1" xmlns="http://www.w3.org/2000/svg" xmlns:xlink="http://www.w3.org/1999/xlink">
    <!-- Generator: Sketch 50.2 (55047) - http://www.bohemiancoding.com/sketch -->
    <title>Shape</title>
    <desc>Created with Sketch.</desc>
    <defs></defs>
    <g id="Page-1" stroke="none" stroke-width="1" fill="none" fill-rule="evenodd">
        <g id="hamburger-icon" fill="#E4EDF4" fill-rule="nonzero">
            <path d="M0.821428571,3.67346939 L22.1785714,3.67346939 C22.6322567,3.67346939 23,3.3080102 23,2.85714286 L23,0.816326531 C23,0.365459184 22.6322567,0 22.1785714,0 L0.821428571,0 C0.367743304,0 0,0.365459184 0,0.816326531 L0,2.85714286 C0,3.3080102 0.367743304,3.67346939 0.821428571,3.67346939 Z M0.821428571,11.8367347 L22.1785714,11.8367347 C22.6322567,11.8367347 23,11.4712755 23,11.0204082 L23,8.97959184 C23,8.52872449 22.6322567,8.16326531 22.1785714,8.16326531 L0.821428571,8.16326531 C0.367743304,8.16326531 0,8.52872449 0,8.97959184 L0,11.0204082 C0,11.4712755 0.367743304,11.8367347 0.821428571,11.8367347 Z M0.821428571,20 L22.1785714,20 C22.6322567,20 23,19.6345408 23,19.1836735 L23,17.1428571 C23,16.6919898 22.6322567,16.3265306 22.1785714,16.3265306 L0.821428571,16.3265306 C0.367743304,16.3265306 0,16.6919898 0,17.1428571 L0,19.1836735 C0,19.6345408 0.367743304,20 0.821428571,20 Z" id="Shape"></path>
        </g>
    </g>
</svg>