<?xml version="1.0" encoding="UTF-8"?>
<svg width="23px" height="20px" viewBox="0 0 23 20" version="1.1" xmlns="http://www.w3.org/2000/svg" xmlns:xlink="http://www.w3.org/1999/xlink">
    <!-- Generator: Sketch 50.2 (55047) - http://www.bohemiancoding.com/sketch -->
    <title>Shape</title>
    <desc>Created with Sketch.</desc>
    <defs></defs>
    <g id="Page-1" stroke="none" stroke-width="1" fill="none" fill-rule="evenodd">
        <g id="iPhone-8-Plus" transform="translate(-361.000000, -36.000000)" fill="#E4EDF4" fill-rule="nonzero">
            <g id="Navigation">
                <path d="M362.277778,36 L382.722222,36 C383.427919,36 384,36.6395932 384,37.4285714 C384,38.2175496 383.427919,38.8571429 382.722222,38.8571429 L362.277778,38.8571429 C361.572081,38.8571429 361,38.2175496 361,37.4285714 C361,36.6395932 361.572081,36 362.277778,36 Z M362.277778,44.5714286 L382.722222,44.5714286 C383.427919,44.5714286 384,45.2110218 384,46 C384,46.7889782 383.427919,47.4285714 382.722222,47.4285714 L362.277778,47.4285714 C361.572081,47.4285714 361,46.7889782 361,46 C361,45.2110218 361.572081,44.5714286 362.277778,44.5714286 Z M362.277778,53.1428571 L382.722222,53.1428571 C383.427919,53.1428571 384,53.7824504 384,54.5714286 C384,55.3604068 383.427919,56 382.722222,56 L362.277778,56 C361.572081,56 361,55.3604068 361,54.5714286 C361,53.7824504 361.572081,53.1428571 362.277778,53.1428571 Z" id="Shape"></path>
            </g>
        </g>
    </g>
</svg>