<?xml version="1.0" encoding="UTF-8"?>
<svg width="25px" height="20px" viewBox="0 0 25 20" version="1.1" xmlns="http://www.w3.org/2000/svg" xmlns:xlink="http://www.w3.org/1999/xlink">
    <!-- Generator: Sketch 50.2 (55047) - http://www.bohemiancoding.com/sketch -->
    <title>home-solid</title>
    <desc>Created with Sketch.</desc>
    <defs></defs>
    <g id="Page-1" stroke="none" stroke-width="1" fill="none" fill-rule="evenodd">
        <g id="Galaxy-S8-Copy" transform="translate(-14.000000, -106.000000)" fill="#3593C9" fill-rule="nonzero">
            <g id="Nav-container" transform="translate(14.000000, 94.000000)">
                <g id="Group-Copy-3">
                    <g id="Group">
                        <g id="Group-3">
                            <g id="home-solid" transform="translate(0.000000, 12.000000)">
                                <path d="M21.1801516,12.5254105 L21.1801516,18.9277337 C21.1801516,19.521948 20.7156943,20 20.1383782,20 L15.1031402,20 C14.8166526,20 14.5822536,19.7587401 14.5822536,19.4638669 L14.5822536,14.4599576 C14.5822536,14.1650843 14.3478545,13.9238244 14.0613669,13.9238244 L10.9360468,13.9238244 C10.6495591,13.9238244 10.4151601,14.1650843 10.4151601,14.4599576 L10.4151601,19.4638669 C10.4151601,19.7587401 10.1807611,20 9.89427338,20 L4.85903541,20 C4.28171934,20 3.81726204,19.521948 3.81726204,18.9277337 L3.81726204,12.5254105 C3.81726204,12.3645705 3.8867136,12.2126661 4.00825383,12.1099073 L12.1688119,5.19378979 C12.3598037,5.03294985 12.6376099,5.03294985 12.8329424,5.19378979 L20.9935005,12.1099073 C21.1107,12.2126661 21.1801516,12.3645705 21.1801516,12.5254105 Z M24.8089955,9.80453479 L21.1801516,6.72623702 L21.1801516,0.538367028 C21.1801516,0.243493801 20.9457526,0.00223388808 20.6592649,0.00223388808 L18.2284604,0.00223388808 C17.9419727,0.00223388808 17.7075737,0.243493801 17.7075737,0.538367028 L17.7075737,3.78197252 L13.8226271,0.48922149 C13.0543193,-0.16307383 11.9430943,-0.16307383 11.1747865,0.48922149 L0.188418128,9.80453479 C-0.0329587134,9.99218139 -0.0633437701,10.3317324 0.11896657,10.559589 L1.22585078,11.9445996 C1.40816112,12.1724562 1.73805602,12.2037306 1.95943286,12.016084 L12.1688119,3.36200156 C12.3598037,3.20116162 12.6376099,3.20116162 12.8329424,3.36200156 L23.0423215,12.016084 C23.2636983,12.2037306 23.5935932,12.1724562 23.7759036,11.9445996 L24.8827878,10.559589 C25.0650981,10.3272646 25.0303723,9.99218139 24.8089955,9.80453479 Z" id="Shape"></path>
                            </g>
                        </g>
                    </g>
                </g>
            </g>
        </g>
    </g>
</svg>