<?xml version="1.0" encoding="UTF-8"?>
<svg width="18px" height="18px" viewBox="0 0 18 18" version="1.1" xmlns="http://www.w3.org/2000/svg" xmlns:xlink="http://www.w3.org/1999/xlink">
    <!-- Generator: Sketch 50.2 (55047) - http://www.bohemiancoding.com/sketch -->
    <title>Shape</title>
    <desc>Created with Sketch.</desc>
    <defs></defs>
    <g id="Page-1" stroke="none" stroke-width="1" fill="none" fill-rule="evenodd">
        <g id="Desktop-HD" transform="translate(-1173.000000, -5332.000000)" fill="#7F8791" fill-rule="nonzero">
            <g id="Footer" transform="translate(0.000000, 5124.000000)">
                <g id="Socail-media" transform="translate(1172.000000, 79.000000)">
                    <g id="Social-media-link" transform="translate(0.000000, 85.000000)">
                        <g id="Instagram-link" transform="translate(1.000000, 44.000000)">
                            <g id="instagram">
                                <path d="M9.00200781,4.38502733 C6.44807585,4.38502733 4.3880647,6.44549816 4.3880647,9 C4.3880647,11.5545018 6.44807585,13.6149727 9.00200781,13.6149727 C11.5559398,13.6149727 13.6159509,11.5545018 13.6159509,9 C13.6159509,6.44549816 11.5559398,4.38502733 9.00200781,4.38502733 Z M9.00200781,12.0003347 C7.35158951,12.0003347 6.00234244,10.6548031 6.00234244,9 C6.00234244,7.34519692 7.3475739,5.99966529 9.00200781,5.99966529 C10.6564417,5.99966529 12.0016732,7.34519692 12.0016732,9 C12.0016732,10.6548031 10.6524261,12.0003347 9.00200781,12.0003347 Z M14.8808701,4.19625126 C14.8808701,4.79471159 14.3989961,5.27267656 13.8046849,5.27267656 C13.2063581,5.27267656 12.7284997,4.79069508 12.7284997,4.19625126 C12.7284997,3.60180743 13.2103737,3.11982595 13.8046849,3.11982595 C14.3989961,3.11982595 14.8808701,3.60180743 14.8808701,4.19625126 Z M17.936754,5.28874261 C17.8684886,3.84681468 17.539208,2.56956376 16.4831009,1.51723753 C15.4310095,0.464911302 14.1540435,0.135557291 12.7124373,0.0632600692 C11.2266592,-0.0210866897 6.77334077,-0.0210866897 5.28756274,0.0632600692 C3.84997211,0.131540779 2.57300613,0.46089479 1.51689905,1.51322102 C0.460791969,2.56554725 0.13552705,3.84279817 0.0632459565,5.2847261 C-0.0210819855,6.77083566 -0.0210819855,11.2251478 0.0632459565,12.7112574 C0.131511433,14.1531853 0.460791969,15.4304362 1.51689905,16.4827625 C2.57300613,17.5350887 3.8459565,17.8644427 5.28756274,17.9367399 C6.77334077,18.0210867 11.2266592,18.0210867 12.7124373,17.9367399 C14.1540435,17.8684592 15.4310095,17.5391052 16.4831009,16.4827625 C17.5351924,15.4304362 17.864473,14.1531853 17.936754,12.7112574 C18.021082,11.2251478 18.021082,6.77485217 17.936754,5.28874261 Z M16.0172895,14.3058128 C15.7040714,15.0930492 15.0977133,15.6995426 14.3066369,16.016847 C13.1220301,16.486779 10.3110987,16.3783331 9.00200781,16.3783331 C7.6929169,16.3783331 4.87796988,16.4827625 3.69737869,16.016847 C2.9103179,15.7035591 2.30395984,15.0970657 1.98672616,14.3058128 C1.51689905,13.1209416 1.62532069,10.309383 1.62532069,9 C1.62532069,7.69061698 1.52091467,4.87504184 1.98672616,3.69418721 C2.29994423,2.9069508 2.90630229,2.30045744 3.69737869,1.98315296 C4.8819855,1.51322102 7.6929169,1.62166685 9.00200781,1.62166685 C10.3110987,1.62166685 13.1260457,1.51723753 14.3066369,1.98315296 C15.0936977,2.29644092 15.7000558,2.90293429 16.0172895,3.69418721 C16.4871166,4.87905835 16.3786949,7.69061698 16.3786949,9 C16.3786949,10.309383 16.4871166,13.1249582 16.0172895,14.3058128 Z" id="Shape"></path>
                            </g>
                        </g>
                    </g>
                </g>
            </g>
        </g>
    </g>
</svg>