<?xml version="1.0" encoding="UTF-8"?>
<svg width="36px" height="32px" viewBox="0 0 36 32" version="1.1" xmlns="http://www.w3.org/2000/svg" xmlns:xlink="http://www.w3.org/1999/xlink">
    <!-- Generator: Sketch 51 (57462) - http://www.bohemiancoding.com/sketch -->
    <title>Shape</title>
    <desc>Created with Sketch.</desc>
    <defs></defs>
    <g id="Page-1" stroke="none" stroke-width="1" fill="none" fill-rule="evenodd">
        <g id="Desktop-HD-Copy" transform="translate(-163.000000, -849.000000)" fill="#5C5DA3" fill-rule="nonzero">
            <g id="Grid-container" transform="translate(143.000000, 283.000000)">
                <g id="Stacked-Group">
                    <g id="Grid-1">
                        <g>
                            <g id="Group-4">
                                <g id="Group" transform="translate(1.473354, 0.000000)">
                                    <g id="Content-area" transform="translate(18.526646, 370.000000)">
                                        <g id="User-feed" transform="translate(0.000000, 195.000000)">
                                            <g id="heart-regular" transform="translate(0.000000, 1.000000)">
                                                <g id="Likes">
                                                    <path d="M32.2312344,2.30808003 C28.1671749,-1.16240413 21.8882733,-0.641117413 17.9999949,3.37921711 C14.1117165,-0.641117413 7.8328149,-1.16954504 3.7687554,2.30808003 C-1.51874069,6.82827852 -0.745303762,14.1977017 3.02344345,18.1037816 L15.3562468,30.8645947 C16.0593713,31.5929679 17.0015581,32 17.9999949,32 C19.0054629,32 19.9406184,31.6001088 20.6437429,30.8717356 L32.9765463,18.1109225 C36.7382623,14.2048426 37.5257617,6.83541943 32.2312344,2.30808003 Z M29.9718938,15.2156499 L17.7422882,27.8725106 C17.5749504,28.0424965 17.4355022,28.0424965 17.2681644,27.8725106 L5.03855885,15.2156499 C2.49362953,12.5808697 1.97767126,7.59461896 5.54754472,4.54195696 C8.25981185,2.22590017 12.4432573,2.57295456 15.0648831,5.28564492 L17.5052263,7.81418398 L19.9455695,5.28564492 C22.5811401,2.55878907 26.7645856,2.22590017 29.4629079,4.53487422 C33.025809,7.58753622 32.4959059,12.6021179 29.9718938,15.2156499 Z" id="Shape"></path>
                                                </g>
                                            </g>
                                        </g>
                                    </g>
                                </g>
                            </g>
                        </g>
                    </g>
                </g>
            </g>
        </g>
    </g>
</svg>