<?xml version="1.0" encoding="UTF-8"?>
<svg width="75px" height="95px" viewBox="0 0 75 95" version="1.1" xmlns="http://www.w3.org/2000/svg" xmlns:xlink="http://www.w3.org/1999/xlink">
    <!-- Generator: Sketch 50.2 (55047) - http://www.bohemiancoding.com/sketch -->
    <title>Group 13</title>
    <desc>Created with Sketch.</desc>
    <defs></defs>
    <g id="Page-1" stroke="none" stroke-width="1" fill="none" fill-rule="evenodd">
        <g id="Desktop-HD" transform="translate(-1120.000000, -1080.000000)" fill="#3593C9" fill-rule="nonzero">
            <g id="Group-11" transform="translate(1014.000000, 1053.000000)">
                <g id="Group-7-Copy-2" transform="translate(69.000000, 0.000000)">
                    <g id="Group-10">
                        <g id="padlock-(1)" transform="translate(37.000000, 27.000000)">
                            <g id="Group-13">
                                <path d="M63.9705882,34.5768229 L57.3461397,34.5768229 L57.3461397,19.4531413 C57.3461397,8.72660156 48.4400735,0 37.4931985,0 C26.5463235,0 17.6402574,8.72660156 17.6402574,19.4531413 L17.6402574,34.5768229 L11.0294118,34.5768229 C4.94779412,34.5768229 0,39.527194 0,45.6119792 L0,83.1315104 C0,89.2162956 4.94779412,94.1666667 11.0294118,94.1666667 L63.9705882,94.1666667 C70.0522059,94.1666667 75,89.2162956 75,83.1315104 L75,45.6119792 C75,39.527194 70.0522059,34.5768229 63.9705882,34.5768229 Z M24.9931985,19.4531413 C24.9931985,12.783125 30.6007353,7.35677083 37.4931985,7.35677083 C44.3856618,7.35677083 49.9931985,12.783125 49.9931985,19.4531413 L49.9931985,34.5768229 L24.9931985,34.5768229 L24.9931985,19.4531413 Z M67.6470588,83.1315104 C67.6470588,85.1597721 65.9977941,86.8098958 63.9705882,86.8098958 L11.0294118,86.8098958 C9.00220588,86.8098958 7.35294118,85.1597721 7.35294118,83.1315104 L7.35294118,45.6119792 C7.35294118,43.5837174 9.00220588,41.9335937 11.0294118,41.9335937 L63.9705882,41.9335937 C65.9977941,41.9335937 67.6470588,43.5837174 67.6470588,45.6119792 L67.6470588,83.1315104 Z" id="Shape"></path>
                                <path d="M39.2931034,46 C34.6207953,46 30.8333333,49.8484343 30.8333333,54.5959596 C30.8333333,57.6273131 32.3789562,60.290202 34.711795,61.8207475 L34.711795,72.020202 C34.711795,74.5862121 36.7590593,76.6666667 39.2846437,76.6666667 C41.8099994,76.6666667 43.8574924,74.5862121 43.8574924,72.020202 L43.8574924,61.8316667 C46.1997055,60.3029798 47.7528736,57.6347475 47.7528736,54.5959596 C47.7528736,49.8484343 43.9654116,46 39.2931034,46 Z" id="Shape"></path>
                            </g>
                        </g>
                    </g>
                </g>
            </g>
        </g>
    </g>
</svg>