<?xml version="1.0" encoding="UTF-8"?>
<svg width="26px" height="18px" viewBox="0 0 26 18" version="1.1" xmlns="http://www.w3.org/2000/svg" xmlns:xlink="http://www.w3.org/1999/xlink">
    <!-- Generator: Sketch 50.2 (55047) - http://www.bohemiancoding.com/sketch -->
    <title>email copy</title>
    <desc>Created with Sketch.</desc>
    <defs></defs>
    <g id="Page-1" stroke="none" stroke-width="1" fill="none" fill-rule="evenodd">
        <g id="Desktop-HD" transform="translate(-566.000000, -5419.000000)" fill="#B1B5BB" fill-rule="nonzero">
            <g id="Footer" transform="translate(0.000000, 5124.000000)">
                <g id="Contact-info" transform="translate(566.000000, 75.000000)">
                    <g id="Group-5" transform="translate(0.000000, 220.000000)">
                        <g id="email-copy">
                            <path d="M23.0178456,0 L2.38115644,0 C1.06606358,0 0,1.00525319 0,2.24533054 L0,15.7173138 C0,16.9573911 1.06606358,17.9626443 2.38115644,17.9626443 L23.0178456,17.9626443 C24.3329385,17.9626443 25.3990021,16.9573911 25.3990021,15.7173138 L25.3990021,2.24533054 C25.3990021,1.00525319 24.3329385,0 23.0178456,0 Z M23.0178456,2.24533054 L23.0178456,4.15409538 C21.9055479,5.00820976 20.1322809,6.33632277 16.341331,9.13545473 C15.5058923,9.75511918 13.8509886,11.2438201 12.699501,11.2264656 C11.5482119,11.2440072 9.89276248,9.75488529 9.05767107,9.13545473 C5.26731648,6.33674377 3.49360297,5.00835009 2.38115644,4.15409538 L2.38115644,2.24533054 L23.0178456,2.24533054 Z M2.38115644,15.7173138 L2.38115644,7.03527546 C3.517861,7.88901562 5.1298543,9.08703979 7.5868605,10.9012669 C8.67113001,11.7060775 10.5699534,13.4827421 12.699501,13.4719364 C14.8185814,13.4827421 16.6933453,11.7318521 17.8116951,10.9016411 C20.2686517,9.08746079 21.8810914,7.88910917 23.0178456,7.03527546 L23.0178456,15.7173138 L2.38115644,15.7173138 Z" id="Shape"></path>
                        </g>
                    </g>
                </g>
            </g>
        </g>
    </g>
</svg>