<?xml version="1.0" encoding="UTF-8"?>
<svg width="20px" height="32px" viewBox="0 0 20 32" version="1.1" xmlns="http://www.w3.org/2000/svg" xmlns:xlink="http://www.w3.org/1999/xlink">
    <!-- Generator: Sketch 50.2 (55047) - http://www.bohemiancoding.com/sketch -->
    <title>Shape</title>
    <desc>Created with Sketch.</desc>
    <defs></defs>
    <g id="Page-1" stroke="none" stroke-width="1" fill="none" fill-rule="evenodd">
        <g id="Desktop-HD" transform="translate(-566.000000, -5362.000000)" fill="#B1B5BB" fill-rule="nonzero">
            <g id="Footer" transform="translate(0.000000, 5124.000000)">
                <g id="Contact-info" transform="translate(566.000000, 75.000000)">
                    <g id="Phone-link" transform="translate(0.000000, 163.000000)">
                        <g id="mobile-icon">
                            <path d="M17,0 L3,0 C1.34375,0 0,1.34375 0,3 L0,29 C0,30.65625 1.34375,32 3,32 L17,32 C18.65625,32 20,30.65625 20,29 L20,3 C20,1.34375 18.65625,0 17,0 Z M10,30 C8.89375,30 8,29.10625 8,28 C8,26.89375 8.89375,26 10,26 C11.10625,26 12,26.89375 12,28 C12,29.10625 11.10625,30 10,30 Z M17,23.25 C17,23.6625 16.6625,24 16.25,24 L3.75,24 C3.3375,24 3,23.6625 3,23.25 L3,3.75 C3,3.3375 3.3375,3 3.75,3 L16.25,3 C16.6625,3 17,3.3375 17,3.75 L17,23.25 Z" id="Shape"></path>
                        </g>
                    </g>
                </g>
            </g>
        </g>
    </g>
</svg>