<?xml version="1.0" encoding="UTF-8"?>
<svg width="15px" height="24px" viewBox="0 0 15 24" version="1.1" xmlns="http://www.w3.org/2000/svg" xmlns:xlink="http://www.w3.org/1999/xlink">
    <!-- Generator: Sketch 50.2 (55047) - http://www.bohemiancoding.com/sketch -->
    <title>mobile-icon</title>
    <desc>Created with Sketch.</desc>
    <defs></defs>
    <g id="Page-1" stroke="none" stroke-width="1" fill="none" fill-rule="evenodd">
        <g id="mobile-icon" fill="#3593C9" fill-rule="nonzero">
            <path d="M12.75,0 L2.25,0 C1.0078125,0 0,1.0078125 0,2.25 L0,21.75 C0,22.9921875 1.0078125,24 2.25,24 L12.75,24 C13.9921875,24 15,22.9921875 15,21.75 L15,2.25 C15,1.0078125 13.9921875,0 12.75,0 Z M7.5,22.5 C6.6703125,22.5 6,21.8296875 6,21 C6,20.1703125 6.6703125,19.5 7.5,19.5 C8.3296875,19.5 9,20.1703125 9,21 C9,21.8296875 8.3296875,22.5 7.5,22.5 Z M12.75,17.4375 C12.75,17.746875 12.496875,18 12.1875,18 L2.8125,18 C2.503125,18 2.25,17.746875 2.25,17.4375 L2.25,2.8125 C2.25,2.503125 2.503125,2.25 2.8125,2.25 L12.1875,2.25 C12.496875,2.25 12.75,2.503125 12.75,2.8125 L12.75,17.4375 Z" id="Shape"></path>
        </g>
    </g>
</svg>