<?xml version="1.0" encoding="UTF-8"?>
<svg width="82px" height="86px" viewBox="0 0 82 86" version="1.1" xmlns="http://www.w3.org/2000/svg" xmlns:xlink="http://www.w3.org/1999/xlink">
    <!-- Generator: Sketch 50.2 (55047) - http://www.bohemiancoding.com/sketch -->
    <title>Shape</title>
    <desc>Created with Sketch.</desc>
    <defs></defs>
    <g id="Page-1" stroke="none" stroke-width="1" fill="none" fill-rule="evenodd">
        <g id="Desktop-HD" transform="translate(-721.000000, -1084.000000)" fill="#3593C9" fill-rule="nonzero">
            <g id="Group-8" transform="translate(579.000000, 1053.000000)">
                <g id="Group-9" transform="translate(108.000000, 0.000000)">
                    <g id="settings-icon" transform="translate(34.000000, 31.000000)">
                        <path d="M73.6033724,48.7529251 L80.9630845,52.9891335 C81.8036073,53.472873 82.1937328,54.4732444 81.9058447,55.3974986 C79.9940741,61.5354286 76.7300757,67.0806096 72.4611457,71.6862097 C71.8031495,72.3964923 70.7395801,72.5576651 69.899684,72.0743724 L62.5454983,67.8388529 C59.4512736,70.4825552 55.8939308,72.5335519 52.0525205,73.888611 L52.0525205,82.3582723 C52.0525346,83.3258413 51.3798322,84.1641121 50.4331282,84.3762361 C44.3962854,85.7280892 37.9126719,85.7980067 31.5711892,84.3774415 C30.6230754,84.1651059 29.9473068,83.3276458 29.9473068,82.3586168 L29.9473068,73.888611 C26.1058598,72.5336312 22.5485031,70.4826264 19.454329,67.8388529 L12.1001433,72.0743724 C11.2602472,72.5576651 10.1966778,72.3964923 9.53868163,71.6862097 C5.2699243,67.0806096 2.00575315,61.5354286 0.0939826354,55.3974986 C-0.193905482,54.4734166 0.196220047,53.4730453 1.03674282,52.9891335 L8.39662757,48.7529251 C7.65739558,44.756966 7.65739558,40.6598729 8.39662757,36.6639138 L1.03691552,32.4277054 C0.196392745,31.9439658 -0.193732783,30.9435945 0.0941553337,30.0193403 C2.00592585,23.8814103 5.2699243,18.3362292 9.53885433,13.7306292 C10.1968505,13.0203465 11.2604199,12.8591737 12.100316,13.3424665 L19.4545017,17.577986 C22.5487264,14.9342837 26.1060692,12.883287 29.9474795,11.5282279 L29.9474795,3.05839433 C29.9474654,2.09082535 30.6201678,1.2525546 31.5668718,1.04043061 C37.6037146,-0.311422542 44.0873281,-0.381340042 50.4288108,1.03922513 C51.3769246,1.25156079 52.0526932,2.08902091 52.0526932,3.05804991 L52.0526932,11.5280557 C55.8941402,12.8830354 59.4514969,14.9340402 62.545671,17.5778138 L69.8998567,13.3422943 C70.7397528,12.8590015 71.8033222,13.0201743 72.4613184,13.730457 C76.7300757,18.336057 79.9942468,23.8812381 81.9060174,30.019168 C82.1939055,30.9432501 81.80378,31.9436214 80.9632572,32.4275332 L73.6033724,36.6637415 C74.3426062,40.6597584 74.3426062,44.7569082 73.6033724,48.7529251 Z M54.8158664,42.7083333 C54.8158664,35.1117797 48.6180688,28.9314859 41,28.9314859 C33.3819312,28.9314859 27.1841336,35.1117797 27.1841336,42.7083333 C27.1841336,50.304887 33.3819312,56.4851807 41,56.4851807 C48.6180688,56.4851807 54.8158664,50.304887 54.8158664,42.7083333 Z" id="Shape"></path>
                    </g>
                </g>
            </g>
        </g>
    </g>
</svg>