<?xml version="1.0" encoding="UTF-8"?>
<svg width="68px" height="99px" viewBox="0 0 68 99" version="1.1" xmlns="http://www.w3.org/2000/svg" xmlns:xlink="http://www.w3.org/1999/xlink">
    <!-- Generator: Sketch 50.2 (55047) - http://www.bohemiancoding.com/sketch -->
    <title>signal</title>
    <desc>Created with Sketch.</desc>
    <defs></defs>
    <g id="Page-1" stroke="none" stroke-width="1" fill="none" fill-rule="evenodd">
        <g id="Desktop-HD" transform="translate(-293.000000, -1078.000000)" fill="#3593C9" fill-rule="nonzero">
            <g id="Group-12" transform="translate(144.000000, 1053.000000)">
                <g id="Group-7" transform="translate(108.000000, 0.000000)">
                    <g id="signal" transform="translate(41.000000, 25.000000)">
                        <path d="M1.37837838,74.0714286 L7.81081081,74.0714286 C8.56891892,74.0714286 9.18918919,75.113058 9.18918919,76.3861607 L9.18918919,96.4471726 C9.18918919,97.7202753 8.56891892,98.7619048 7.81081081,98.7619048 L1.37837838,98.7619048 C0.62027027,98.7619048 0,97.7202753 0,96.4471726 L0,76.3861607 C0,75.113058 0.62027027,74.0714286 1.37837838,74.0714286 Z M14.7027027,67.1272321 L14.7027027,96.4471726 C14.7027027,97.7202753 15.322973,98.7619048 16.0810811,98.7619048 L22.5135135,98.7619048 C23.2716216,98.7619048 23.8918919,97.7202753 23.8918919,96.4471726 L23.8918919,67.1272321 C23.8918919,65.8541295 23.2716216,64.8125 22.5135135,64.8125 L16.0810811,64.8125 C15.322973,64.8125 14.7027027,65.8541295 14.7027027,67.1272321 Z M29.4054054,51.6956845 L29.4054054,96.4471726 C29.4054054,97.7202753 30.0256757,98.7619048 30.7837838,98.7619048 L37.2162162,98.7619048 C37.9743243,98.7619048 38.5945946,97.7202753 38.5945946,96.4471726 L38.5945946,51.6956845 C38.5945946,50.4225818 37.9743243,49.3809524 37.2162162,49.3809524 L30.7837838,49.3809524 C30.0256757,49.3809524 29.4054054,50.4225818 29.4054054,51.6956845 Z M44.1081081,30.0915179 L44.1081081,96.4471726 C44.1081081,97.7202753 44.7283784,98.7619048 45.4864865,98.7619048 L51.9189189,98.7619048 C52.677027,98.7619048 53.2972973,97.7202753 53.2972973,96.4471726 L53.2972973,30.0915179 C53.2972973,28.8184152 52.677027,27.7767857 51.9189189,27.7767857 L45.4864865,27.7767857 C44.7283784,27.7767857 44.1081081,28.8184152 44.1081081,30.0915179 Z M58.8108108,2.31473214 L58.8108108,96.4471726 C58.8108108,97.7202753 59.4310811,98.7619048 60.1891892,98.7619048 L66.6216216,98.7619048 C67.3797297,98.7619048 68,97.7202753 68,96.4471726 L68,2.31473214 C68,1.04162946 67.3797297,0 66.6216216,0 L60.1891892,0 C59.4310811,0 58.8108108,1.04162946 58.8108108,2.31473214 Z" id="Shape"></path>
                    </g>
                </g>
            </g>
        </g>
    </g>
</svg>