<?xml version="1.0" encoding="UTF-8"?>
<svg width="29px" height="21px" viewBox="0 0 29 21" version="1.1" xmlns="http://www.w3.org/2000/svg" xmlns:xlink="http://www.w3.org/1999/xlink">
    <!-- Generator: Sketch 50.2 (55047) - http://www.bohemiancoding.com/sketch -->
    <title>Shape</title>
    <desc>Created with Sketch.</desc>
    <defs></defs>
    <g id="Page-1" stroke="none" stroke-width="1" fill="none" fill-rule="evenodd">
        <g id="Galaxy-S8-Copy" transform="translate(-14.000000, -202.000000)" fill="#3593C9" fill-rule="nonzero">
            <g id="Nav-container" transform="translate(14.000000, 94.000000)">
                <g id="Group-Copy-2" transform="translate(0.000000, 96.000000)">
                    <g id="users-solid-copy" transform="translate(0.000000, 12.000000)">
                        <path d="M4.35,8.84745763 C5.94953125,8.84745763 7.25,7.52494703 7.25,5.89830508 C7.25,4.27166314 5.94953125,2.94915254 4.35,2.94915254 C2.75046875,2.94915254 1.45,4.27166314 1.45,5.89830508 C1.45,7.52494703 2.75046875,8.84745763 4.35,8.84745763 Z M24.65,8.84745763 C26.2495312,8.84745763 27.55,7.52494703 27.55,5.89830508 C27.55,4.27166314 26.2495312,2.94915254 24.65,2.94915254 C23.0504687,2.94915254 21.75,4.27166314 21.75,5.89830508 C21.75,7.52494703 23.0504687,8.84745763 24.65,8.84745763 Z M26.1,10.3220339 L23.2,10.3220339 C22.4025,10.3220339 21.6820312,10.6492055 21.1564062,11.1791314 C22.9825,12.1975106 24.2784375,14.0361229 24.559375,16.220339 L27.55,16.220339 C28.3520312,16.220339 29,15.5613877 29,14.7457627 L29,13.2711864 C29,11.6445445 27.6995312,10.3220339 26.1,10.3220339 Z M14.5,10.3220339 C17.3048438,10.3220339 19.575,8.01340042 19.575,5.16101695 C19.575,2.30863347 17.3048438,0 14.5,0 C11.6951563,0 9.425,2.30863347 9.425,5.16101695 C9.425,8.01340042 11.6951563,10.3220339 14.5,10.3220339 Z M17.98,11.7966102 L17.6039063,11.7966102 C16.6614063,12.2574153 15.6146875,12.5338983 14.5,12.5338983 C13.3853125,12.5338983 12.343125,12.2574153 11.3960938,11.7966102 L11.02,11.7966102 C8.138125,11.7966102 5.8,14.1743644 5.8,17.1050847 L5.8,18.4322034 C5.8,19.6533369 6.77421875,20.6440678 7.975,20.6440678 L21.025,20.6440678 C22.2257813,20.6440678 23.2,19.6533369 23.2,18.4322034 L23.2,17.1050847 C23.2,14.1743644 20.861875,11.7966102 17.98,11.7966102 Z M7.84359375,11.1791314 C7.31796875,10.6492055 6.5975,10.3220339 5.8,10.3220339 L2.9,10.3220339 C1.30046875,10.3220339 0,11.6445445 0,13.2711864 L0,14.7457627 C0,15.5613877 0.64796875,16.220339 1.45,16.220339 L4.43609375,16.220339 C4.7215625,14.0361229 6.0175,12.1975106 7.84359375,11.1791314 Z" id="Shape"></path>
                    </g>
                </g>
            </g>
        </g>
    </g>
</svg>