<?xml version="1.0" encoding="UTF-8"?>
<svg width="22px" height="15px" viewBox="0 0 22 15" version="1.1" xmlns="http://www.w3.org/2000/svg" xmlns:xlink="http://www.w3.org/1999/xlink">
    <!-- Generator: Sketch 50.2 (55047) - http://www.bohemiancoding.com/sketch -->
    <title>Shape</title>
    <desc>Created with Sketch.</desc>
    <defs></defs>
    <g id="Page-1" stroke="none" stroke-width="1" fill="none" fill-rule="evenodd">
        <g id="Desktop-HD" transform="translate(-1173.000000, -5377.000000)" fill="#7F8791" fill-rule="nonzero">
            <g id="Footer" transform="translate(0.000000, 5124.000000)">
                <g id="Socail-media" transform="translate(1172.000000, 79.000000)">
                    <g id="Social-media-link" transform="translate(0.000000, 85.000000)">
                        <g id="youtube-icon" transform="translate(1.000000, 89.000000)">
                            <path d="M21.5402886,2.34699219 C21.2872702,1.42316406 20.5417901,0.695585937 19.5952568,0.448671875 C17.8795973,0 11,0 11,0 C11,0 4.12044297,0 2.40474316,0.448671875 C1.45820989,0.695625 0.712729843,1.42316406 0.459711353,2.34699219 C0,4.02148437 0,7.51515625 0,7.51515625 C0,7.51515625 0,11.0088281 0.459711353,12.6833203 C0.712729843,13.6071484 1.45820989,14.3044141 2.40474316,14.5513281 C4.12044297,15 11,15 11,15 C11,15 17.879557,15 19.5952568,14.5513281 C20.5417901,14.3044141 21.2872702,13.6071484 21.5402886,12.6833203 C22,11.0088281 22,7.51515625 22,7.51515625 C22,7.51515625 22,4.02148437 21.5402886,2.34699219 Z M8.74998444,10.6871484 L8.74998444,4.34316406 L14.4999615,7.51523437 L8.74998444,10.6871484 Z" id="Shape"></path>
                        </g>
                    </g>
                </g>
            </g>
        </g>
    </g>
</svg>